<svg width="96" height="96" viewBox="0 0 96 96" fill="currentColor" xmlns="http://www.w3.org/2000/svg">
<path d="M20 12C15.58 12 12 15.58 12 20V76C12 80.42 15.58 84 20 84H76C80.42 84 84 80.42 84 76V20C84 15.58 80.42 12 76 12H20ZM20 20H76V76H20V20ZM31.1172 25.2656C27.6892 25.2656 25.6328 27.3263 25.6328 30.0703C25.6328 32.8143 27.6894 34.8672 30.7734 34.8672C34.2014 34.8672 36.2578 32.8143 36.2578 30.0703C36.2578 27.3263 34.2012 25.2656 31.1172 25.2656ZM25.9062 40V68H36V40H25.9062ZM44.3281 40V68H54.4219V52.6953C54.4219 48.1393 57.6724 47.4844 58.6484 47.4844C59.6244 47.4844 62.2344 48.4633 62.2344 52.6953V68H72V52.6953C72 43.9073 68.0949 40 63.2109 40C58.3269 40 55.7219 41.6262 54.4219 43.9062V40H44.3281Z" fill="currentColor"/>
</svg>
