<svg width="1366" height="706" viewBox="0 0 1366 706" fill="none" xmlns="http://www.w3.org/2000/svg">
<g clip-path="url(#clip0_122_93)">
<path d="M1366 0.169952H-0.0925293V706H1366V0.169952Z" fill="currentBackgroundColor"/>
<path d="M1371.34 673.003C1344.69 660.584 1311.76 658.56 1280.27 657.808C1239.43 656.835 1194.26 658.655 1164.73 679.527C1148.41 645.148 1099.33 625.81 1052.35 614.801C946.624 590.037 830.053 591.357 725.403 618.502C699.727 586.888 636.549 576.162 594.785 596.331C579.764 570.726 525.753 564.443 500.817 585.395C446.323 546.783 368.486 526.893 293.365 532.382C218.245 537.871 147.179 568.639 103.965 614.391C73.0261 609.422 38.7732 618.334 18.8588 636.53C-1.05569 654.722 -5.69291 697.745 7.33684 719.075H1414.38C1409.21 700.279 1393.28 683.234 1371.34 673.003Z" fill="#B79BE8"/>
<path d="M1178.37 706.178C1155.11 691.788 1119.45 689.585 1093.28 700.926C1039.87 658.975 960.962 635.495 883.132 638.387C832.272 640.279 776.448 657.104 759.101 692.498C732.558 664.569 692.807 641.804 647.004 637.519C601.193 633.239 550.461 651.262 534.807 683.371C517.51 674.196 499.622 664.822 478.904 661.205C458.186 657.587 433.677 661.126 421.124 673.833C415.825 655.353 375.598 650.206 362.198 666.294C337.27 629.785 281.303 606.194 226.097 608.939C170.898 611.683 119.697 640.595 101.603 679.244C75.9278 662.898 34.6053 662.004 7.6781 677.219C4.98253 678.744 2.50745 680.306 0.217288 681.883C-0.757099 695.842 1.53306 709.601 7.32248 719.081H1414.38C1414.01 717.74 1413.58 716.415 1413.1 715.101C1370.11 699.343 1322.82 689.995 1274.91 687.95C1240.87 686.489 1203.9 689.464 1178.37 706.178Z" fill="#E3BCF3"/>
<path d="M387.538 362.492C387.752 362.825 387.795 363.276 387.482 363.59C387.41 363.662 387.325 363.721 387.225 363.773C387.183 363.812 387.133 363.845 387.076 363.878C387.062 363.884 387.055 363.891 387.04 363.897C386.663 364.106 386.229 364.139 385.852 363.91C385.468 363.682 385.347 363.328 385.376 362.917C385.376 362.904 385.376 362.891 385.376 362.877C385.39 362.649 385.618 362.348 385.824 362.23C385.923 362.171 386.016 362.139 386.116 362.113C386.599 361.93 387.261 362.047 387.538 362.492Z" fill="white"/>
<path d="M555.898 472.059C555.706 472.438 555.137 472.765 554.667 472.641C554.404 472.569 554.226 472.497 553.998 472.36C553.415 472.013 553.557 471.118 554.077 470.797C554.198 470.726 554.326 470.654 554.468 470.621C555.101 470.451 555.656 470.699 555.941 471.242C556.069 471.49 556.026 471.811 555.898 472.059Z" fill="white"/>
<path d="M714.297 302.168C714.51 302.501 714.553 302.952 714.24 303.266C714.169 303.338 714.084 303.397 713.984 303.449C713.941 303.488 713.891 303.521 713.835 303.554C713.82 303.56 713.813 303.567 713.799 303.573C713.422 303.783 712.988 303.815 712.611 303.587C712.227 303.358 712.106 303.005 712.134 302.593C712.134 302.58 712.134 302.567 712.134 302.554C712.148 302.325 712.376 302.024 712.582 301.907C712.682 301.848 712.774 301.815 712.874 301.789C713.358 301.606 714.02 301.723 714.297 302.168Z" fill="white"/>
<path d="M84.7773 39.7517C84.7773 39.5099 84.8271 39.2941 84.9979 39.1046C85.1473 38.9477 85.3963 38.8104 85.6311 38.8039C86.1007 38.7843 86.6627 39.1046 86.6627 39.5883C86.6627 39.8302 86.6129 40.0459 86.4422 40.2355C86.2927 40.3924 86.0437 40.5296 85.809 40.5362C85.3394 40.5623 84.7773 40.242 84.7773 39.7517Z" fill="white"/>
<path d="M218.532 200.458C218.745 200.792 218.788 201.243 218.475 201.556C218.403 201.628 218.318 201.687 218.218 201.74C218.176 201.779 218.126 201.811 218.069 201.844C218.055 201.851 218.048 201.857 218.033 201.864C217.656 202.073 217.222 202.106 216.845 201.877C216.461 201.648 216.34 201.295 216.369 200.89C216.369 200.877 216.369 200.864 216.369 200.85C216.383 200.622 216.611 200.321 216.817 200.203C216.917 200.144 217.009 200.112 217.109 200.086C217.6 199.896 218.254 200.014 218.532 200.458Z" fill="white"/>
<path d="M564.243 135.094C564.457 135.428 564.499 135.879 564.186 136.193C564.115 136.265 564.03 136.323 563.93 136.376C563.888 136.415 563.838 136.448 563.781 136.48C563.767 136.487 563.76 136.493 563.745 136.5C563.368 136.709 562.934 136.742 562.557 136.513C562.173 136.284 562.052 135.931 562.081 135.526C562.081 135.513 562.081 135.5 562.081 135.487C562.095 135.258 562.322 134.957 562.529 134.839C562.628 134.781 562.721 134.748 562.82 134.722C563.304 134.532 563.966 134.65 564.243 135.094Z" fill="white"/>
<path d="M51.7443 468.522C51.5522 468.902 50.9831 469.229 50.5135 469.104C50.2503 469.032 50.0724 468.96 49.8447 468.823C49.2613 468.477 49.4036 467.581 49.923 467.261C50.044 467.189 50.172 467.117 50.3143 467.084C50.9475 466.914 51.5024 467.163 51.787 467.705C51.9151 467.96 51.8724 468.281 51.7443 468.522Z" fill="white"/>
<path d="M255.783 321.178C256.032 320.942 256.374 320.838 256.723 320.936C257.043 321.027 257.32 321.302 257.334 321.622C257.349 321.91 257.221 322.191 256.964 322.361C256.673 322.551 256.153 322.57 255.89 322.315C255.719 322.152 255.52 322.001 255.499 321.753C255.485 321.642 255.52 321.524 255.57 321.42C255.627 321.315 255.698 321.237 255.805 321.171C255.734 321.223 255.727 321.224 255.783 321.178Z" fill="white"/>
<path d="M589.884 373.65C590.133 373.415 590.475 373.311 590.823 373.409C591.144 373.5 591.421 373.775 591.435 374.095C591.449 374.383 591.321 374.664 591.065 374.834C590.774 375.023 590.254 375.043 589.991 374.788C589.82 374.625 589.621 374.474 589.6 374.226C589.585 374.115 589.621 373.997 589.671 373.892C589.728 373.788 589.799 373.709 589.906 373.644C589.834 373.696 589.827 373.696 589.884 373.65Z" fill="white"/>
<path d="M49.425 206.42L48.0448 202.282L43.7618 201.014L47.9807 199.752L49.425 195.608L50.8621 199.805L55.1807 201.014L50.7981 202.334L49.425 206.42Z" fill="white"/>
<path d="M252.888 418.651L252.048 416.115L249.423 415.344L252.006 414.572L252.888 412.036L253.77 414.605L256.41 415.344L253.727 416.154L252.888 418.651Z" fill="white"/>
<path d="M115.541 347.895L114.701 345.358L112.083 344.587L114.666 343.815L115.541 341.279L116.423 343.848L119.063 344.587L116.387 345.397L115.541 347.895Z" fill="white"/>
<path d="M105.908 493.409L105.09 490.964L102.557 490.212L105.054 489.467L105.908 487.016L106.754 489.5L109.308 490.212L106.719 490.997L105.908 493.409Z" fill="white"/>
<path d="M690.79 511.49L689.915 508.869L687.205 508.065L689.88 507.268L690.79 504.646L691.701 507.307L694.433 508.065L691.658 508.908L690.79 511.49Z" fill="white"/>
<path d="M513.509 249.061L512.99 247.512L511.389 247.035L512.969 246.564L513.509 245.015L514.043 246.584L515.658 247.035L514.022 247.531L513.509 249.061Z" fill="white"/>
<path d="M664.808 418.776C664.808 418.416 664.879 418.089 665.142 417.808C665.363 417.566 665.747 417.37 666.096 417.351C666.807 417.318 667.647 417.795 667.647 418.527C667.647 418.887 667.576 419.214 667.312 419.495C667.092 419.737 666.708 419.933 666.359 419.952C665.647 419.985 664.808 419.508 664.808 418.776Z" fill="white"/>
<path d="M296.386 33.0578L295.547 30.528L292.922 29.7566L295.504 28.9787L296.386 26.4489L297.269 29.0179L299.908 29.7566L297.226 30.5606L296.386 33.0578Z" fill="white"/>
<path d="M350.87 174.447L350.03 171.918L347.405 171.146L349.988 170.368L350.87 167.838L351.752 170.407L354.392 171.146L351.716 171.95L350.87 174.447Z" fill="white"/>
<path d="M442.107 487.016L440.336 481.688L434.815 480.06L440.25 478.433L442.107 473.105L443.957 478.505L449.514 480.06L443.879 481.767L442.107 487.016Z" fill="white"/>
<path d="M712.11 119.679L710.339 114.351L704.818 112.723L710.254 111.096L712.11 105.768L713.96 111.167L719.517 112.723L713.882 114.423L712.11 119.679Z" fill="white"/>
<path d="M1124.47 416.658C1124.68 416.991 1124.72 417.442 1124.41 417.756C1124.34 417.828 1124.25 417.887 1124.15 417.939C1124.11 417.978 1124.06 418.011 1124 418.044C1123.99 418.05 1123.98 418.057 1123.97 418.063C1123.59 418.272 1123.16 418.305 1122.78 418.076C1122.4 417.847 1122.28 417.494 1122.3 417.083C1122.3 417.07 1122.3 417.056 1122.3 417.043C1122.32 416.815 1122.55 416.514 1122.75 416.396C1122.85 416.337 1122.94 416.305 1123.04 416.279C1123.53 416.095 1124.19 416.213 1124.47 416.658Z" fill="white"/>
<path d="M1292.83 526.225C1292.63 526.604 1292.07 526.931 1291.6 526.807C1291.33 526.735 1291.15 526.663 1290.93 526.526C1290.34 526.179 1290.49 525.284 1291.01 524.963C1291.13 524.891 1291.25 524.819 1291.4 524.787C1292.03 524.617 1292.58 524.865 1292.87 525.408C1292.99 525.656 1292.95 525.977 1292.83 526.225Z" fill="white"/>
<path d="M821.699 93.9242C821.699 93.6823 821.749 93.4666 821.919 93.277C822.069 93.1201 822.318 92.9828 822.553 92.9763C823.022 92.9567 823.584 93.277 823.584 93.7607C823.584 94.0026 823.534 94.2183 823.364 94.4079C823.214 94.5648 822.965 94.7021 822.73 94.7086C822.261 94.7282 821.699 94.4079 821.699 93.9242Z" fill="white"/>
<path d="M955.46 254.624C955.673 254.958 955.716 255.409 955.403 255.722C955.332 255.794 955.247 255.853 955.147 255.905C955.104 255.945 955.055 255.977 954.998 256.01C954.983 256.017 954.976 256.023 954.962 256.03C954.585 256.239 954.151 256.271 953.774 256.043C953.39 255.814 953.269 255.461 953.297 255.056C953.297 255.043 953.297 255.029 953.297 255.016C953.311 254.788 953.539 254.487 953.745 254.369C953.845 254.31 953.937 254.278 954.037 254.252C954.521 254.062 955.183 254.18 955.46 254.624Z" fill="white"/>
<path d="M1301.16 189.26C1301.38 189.594 1301.42 190.045 1301.11 190.359C1301.04 190.43 1300.95 190.489 1300.85 190.542C1300.81 190.581 1300.76 190.613 1300.7 190.646C1300.69 190.653 1300.68 190.659 1300.67 190.666C1300.29 190.875 1299.86 190.908 1299.48 190.679C1299.09 190.45 1298.97 190.097 1299 189.692C1299 189.679 1299 189.666 1299 189.653C1299.02 189.424 1299.24 189.123 1299.45 189.005C1299.55 188.947 1299.64 188.914 1299.74 188.888C1300.23 188.698 1300.89 188.816 1301.16 189.26Z" fill="white"/>
<path d="M788.673 522.688C788.481 523.068 787.912 523.394 787.442 523.27C787.179 523.198 787.001 523.126 786.773 522.989C786.19 522.643 786.332 521.747 786.852 521.427C786.972 521.355 787.101 521.283 787.243 521.25C787.876 521.08 788.431 521.329 788.716 521.871C788.837 522.126 788.794 522.447 788.673 522.688Z" fill="white"/>
<path d="M992.705 375.344C992.954 375.108 993.295 375.004 993.644 375.102C993.964 375.193 994.235 375.468 994.256 375.788C994.27 376.076 994.142 376.357 993.886 376.527C993.594 376.716 993.075 376.736 992.812 376.481C992.641 376.318 992.442 376.167 992.42 375.919C992.406 375.808 992.442 375.69 992.491 375.585C992.548 375.481 992.62 375.402 992.726 375.337C992.655 375.389 992.648 375.389 992.705 375.344Z" fill="white"/>
<path d="M1326.81 427.816C1327.05 427.581 1327.4 427.476 1327.74 427.575C1328.07 427.666 1328.34 427.941 1328.36 428.261C1328.37 428.549 1328.24 428.83 1327.99 429C1327.7 429.189 1327.18 429.209 1326.91 428.954C1326.74 428.79 1326.54 428.64 1326.52 428.392C1326.51 428.281 1326.54 428.163 1326.59 428.058C1326.65 427.954 1326.72 427.875 1326.83 427.81C1326.76 427.862 1326.75 427.862 1326.81 427.816Z" fill="white"/>
<path d="M786.346 260.586L784.973 256.448L780.683 255.18L784.909 253.918L786.346 249.774L787.784 253.97L792.102 255.18L787.727 256.5L786.346 260.586Z" fill="white"/>
<path d="M989.809 472.817L988.97 470.287L986.352 469.51L988.934 468.738L989.809 466.202L990.691 468.771L993.331 469.51L990.656 470.32L989.809 472.817Z" fill="white"/>
<path d="M852.469 402.06L851.63 399.524L849.005 398.753L851.587 397.981L852.469 395.445L853.352 398.014L855.991 398.753L853.309 399.563L852.469 402.06Z" fill="white"/>
<path d="M842.829 547.575L842.018 545.13L839.485 544.378L841.982 543.633L842.829 541.182L843.683 543.666L846.237 544.378L843.647 545.163L842.829 547.575Z" fill="white"/>
<path d="M1250.43 303.227L1249.92 301.678L1248.31 301.201L1249.89 300.73L1250.43 299.181L1250.97 300.749L1252.59 301.201L1250.94 301.697L1250.43 303.227Z" fill="white"/>
<path d="M925.123 93.8392L924.284 91.3093L921.659 90.5314L924.241 89.7601L925.123 87.2237L926.006 89.7928L928.645 90.5314L925.963 91.342L925.123 93.8392Z" fill="white"/>
<path d="M1087.8 228.62L1086.95 226.083L1084.33 225.312L1086.92 224.534L1087.8 222.004L1088.67 224.573L1091.32 225.312L1088.64 226.123L1087.8 228.62Z" fill="white"/>
<path d="M1137 531.69L1135.23 526.362L1129.72 524.735L1135.15 523.107L1137 517.773L1138.86 523.179L1144.42 524.735L1138.77 526.434L1137 531.69Z" fill="white"/>
<path d="M-0.0925293 72.0905L120.663 242.576" stroke="white" stroke-miterlimit="10"/>
<path d="M1245.49 367.401L1366.25 537.894" stroke="white" stroke-miterlimit="10"/>
<path opacity="0.75" d="M617.546 401.918L748.454 590.537" stroke="white" stroke-miterlimit="10"/>
<path d="M1056.99 118.976C1063 115.492 1070.42 114.923 1077.53 114.714C1086.75 114.439 1096.94 114.949 1103.6 120.806C1107.28 111.164 1118.36 105.738 1128.96 102.653C1152.81 95.7106 1179.11 96.0767 1202.73 103.692C1208.52 94.8281 1222.78 91.8211 1232.2 97.4756C1235.58 90.2914 1247.77 88.5329 1253.4 94.4097C1265.69 83.5844 1283.26 78.0018 1300.2 79.5445C1317.15 81.0807 1333.19 89.7096 1342.94 102.542C1349.92 101.149 1357.65 103.647 1362.14 108.752C1366.63 113.851 1367.69 125.918 1364.74 131.9H1047.27C1048.44 126.631 1052.03 121.846 1056.99 118.976Z" fill="#B79BE8"/>
<path d="M1100.53 128.285C1105.78 124.251 1113.82 123.63 1119.73 126.814C1131.78 115.047 1149.58 108.464 1167.15 109.275C1178.62 109.804 1191.22 114.524 1195.13 124.447C1201.12 116.616 1210.08 110.229 1220.42 109.027C1230.76 107.824 1242.21 112.883 1245.73 121.885C1249.64 119.309 1253.67 116.681 1258.35 115.668C1263.02 114.655 1268.55 115.649 1271.38 119.211C1272.58 114.027 1281.66 112.583 1284.68 117.1C1290.31 106.863 1302.94 100.247 1315.39 101.012C1327.84 101.784 1339.39 109.889 1343.48 120.728C1349.27 116.145 1358.59 115.89 1364.67 120.159C1365.28 120.584 1365.84 121.022 1366.36 121.467C1366.58 125.382 1366.06 129.239 1364.75 131.9H1047.28C1047.37 131.527 1047.47 131.154 1047.57 130.782C1057.27 126.363 1067.94 123.741 1078.76 123.166C1086.43 122.761 1094.77 123.598 1100.53 128.285Z" fill="#E3BCF3"/>
<path d="M-185.555 414.881C-177.103 409.985 -166.659 409.187 -156.677 408.893C-143.729 408.508 -129.4 409.227 -120.037 417.457C-114.865 403.905 -99.2983 396.283 -84.4003 391.943C-50.8693 382.183 -13.9019 382.699 19.2805 393.4C27.4196 380.941 47.4613 376.711 60.7016 384.66C65.4684 374.567 82.5932 372.09 90.5046 380.353C107.786 365.134 132.473 357.29 156.293 359.454C180.113 361.617 202.652 373.744 216.362 391.779C226.173 389.825 237.037 393.335 243.347 400.506C249.665 407.677 251.131 424.634 247.004 433.041H-199.208C-197.565 425.635 -192.514 418.914 -185.555 414.881Z" fill="#B79BE8"/>
<path d="M-124.363 427.955C-116.985 422.281 -105.673 421.412 -97.3772 425.883C-80.4373 409.351 -55.4153 400.088 -30.7349 401.232C-14.6061 401.977 3.095 408.612 8.60169 422.562C17.0182 411.554 29.6253 402.578 44.1532 400.892C58.6812 399.205 74.7673 406.311 79.7333 418.967C85.2186 415.352 90.889 411.652 97.4628 410.227C104.037 408.802 111.806 410.194 115.79 415.201C117.469 407.919 130.225 405.886 134.473 412.227C142.377 397.833 160.128 388.537 177.637 389.616C195.146 390.694 211.382 402.095 217.116 417.326C225.255 410.88 238.367 410.527 246.905 416.528C247.758 417.13 248.541 417.744 249.274 418.365C249.587 423.87 248.854 429.289 247.018 433.028H-199.194C-199.08 432.498 -198.938 431.976 -198.788 431.459C-185.157 425.249 -170.159 421.562 -154.963 420.758C-144.177 420.196 -132.452 421.366 -124.363 427.955Z" fill="#E3BCF3"/>
<path d="M1071.74 352.686C1088.2 352.686 1101.54 340.426 1101.54 325.303C1101.54 310.179 1088.2 297.919 1071.74 297.919C1055.28 297.919 1041.94 310.179 1041.94 325.303C1041.94 340.426 1055.28 352.686 1071.74 352.686Z" fill="#FFE5FC"/>
<path d="M1052.27 325.303C1052.27 311.804 1062.91 300.612 1076.91 298.357C1075.23 298.089 1073.51 297.919 1071.74 297.919C1055.28 297.919 1041.94 310.176 1041.94 325.303C1041.94 340.423 1055.28 352.686 1071.74 352.686C1073.51 352.686 1075.23 352.516 1076.91 352.248C1062.91 349.999 1052.27 338.808 1052.27 325.303Z" fill="#F9D3FC"/>
<path d="M185.954 132.244C185.954 121.955 194.064 113.424 204.729 111.711C203.449 111.502 202.14 111.378 200.795 111.378C188.252 111.378 178.078 120.719 178.078 132.251C178.078 143.776 188.245 153.123 200.795 153.123C202.14 153.123 203.449 152.993 204.729 152.79C194.064 151.064 185.954 142.533 185.954 132.244Z" fill="#ECE0F6"/>
</g>
<defs>
<clipPath id="clip0_122_93">
<rect width="1366" height="706" fill="white"/>
</clipPath>
</defs>
</svg>
