<svg fill="currentColor" xmlns="http://www.w3.org/2000/svg"  viewBox="0 0 48 48" width="48px" height="48px"><path d="M 21.5 5 C 21.224 5 21 5.224 21 5.5 L 21 8.5 C 21 8.776 21.224 9 21.5 9 L 24.5 9 C 24.776 9 25 8.776 25 8.5 L 25 5.5 C 25 5.224 24.776 5 24.5 5 L 21.5 5 z M 9.5 11 C 9.224 11 9 11.224 9 11.5 L 9 14.5 C 9 14.776 9.224 15 9.5 15 L 12.5 15 C 12.776 15 13 14.776 13 14.5 L 13 11.5 C 13 11.224 12.776 11 12.5 11 L 9.5 11 z M 15.5 11 C 15.224 11 15 11.224 15 11.5 L 15 14.5 C 15 14.776 15.224 15 15.5 15 L 18.5 15 C 18.776 15 19 14.776 19 14.5 L 19 11.5 C 19 11.224 18.776 11 18.5 11 L 15.5 11 z M 21.5 11 C 21.224 11 21 11.224 21 11.5 L 21 14.5 C 21 14.776 21.224 15 21.5 15 L 24.5 15 C 24.776 15 25 14.776 25 14.5 L 25 11.5 C 25 11.224 24.776 11 24.5 11 L 21.5 11 z M 36.589844 14.291016 A 1.50015 1.50015 0 0 0 35.326172 14.933594 L 34.902344 15.542969 A 1.50015 1.50015 0 0 0 34.875 15.582031 C 34.252409 16.541761 33.799008 17.599976 33.53125 18.710938 A 1.50015 1.50015 0 0 0 33.529297 18.716797 C 33.185512 20.165662 33.373868 21.538087 33.792969 22.84375 C 33.705279 22.85948 33.658807 22.890584 33.572266 22.902344 C 33.017197 22.977804 32.561413 22.990237 32.339844 22.998047 L 2.5 22.998047 C 1.1364058 22.998047 0 24.134453 0 25.498047 L 0 26.539062 C 0 28.600335 0.3667204 31.453282 1.3398438 34.099609 A 1.50015 1.50015 0 0 0 1.3457031 34.117188 C 2.4542627 37.012062 4.1736056 39.282187 6.4726562 40.681641 C 9.0823831 42.273456 12.863858 43.019531 17.123047 43.019531 C 19.054262 43.025631 20.98155 42.849798 22.878906 42.498047 C 25.55462 42.008841 28.127452 41.078131 30.494141 39.744141 A 1.50015 1.50015 0 0 0 30.507812 39.736328 C 32.491293 38.593012 34.234403 37.125893 35.748047 35.46875 C 37.319093 33.748943 38.587375 31.668343 39.494141 29.998047 C 39.947523 29.162899 40.306333 28.430732 40.554688 27.904297 C 40.563688 27.885197 40.567462 27.877935 40.576172 27.859375 C 43.221422 27.636835 45.024255 26.340353 45.933594 25.447266 C 46.665506 24.753035 47.23983 23.909626 47.611328 22.970703 A 1.50015 1.50015 0 0 0 47.634766 22.90625 L 47.820312 22.371094 A 1.50015 1.50015 0 0 0 47.328125 20.705078 L 46.884766 20.355469 C 46.604874 20.135226 45.054477 19.083984 42.300781 19.083984 A 1.50015 1.50015 0 0 0 42.292969 19.083984 C 42.006867 19.085384 41.724813 19.138353 41.439453 19.158203 C 41.000953 17.938563 40.397512 16.902138 39.746094 16.240234 C 39.299942 15.786902 38.871238 15.454096 38.537109 15.224609 C 38.370045 15.109866 38.226075 15.021359 38.117188 14.957031 C 38.008299 14.892701 37.84542 14.798831 37.958984 14.865234 A 1.50015 1.50015 0 0 0 37.949219 14.861328 L 37.304688 14.490234 A 1.50015 1.50015 0 0 0 36.589844 14.291016 z M 3.5 17 C 3.224 17 3 17.224 3 17.5 L 3 20.5 C 3 20.776 3.224 21 3.5 21 L 6.5 21 C 6.776 21 7 20.776 7 20.5 L 7 17.5 C 7 17.224 6.776 17 6.5 17 L 3.5 17 z M 9.5 17 C 9.224 17 9 17.224 9 17.5 L 9 20.5 C 9 20.776 9.224 21 9.5 21 L 12.5 21 C 12.776 21 13 20.776 13 20.5 L 13 17.5 C 13 17.224 12.776 17 12.5 17 L 9.5 17 z M 15.5 17 C 15.224 17 15 17.224 15 17.5 L 15 20.5 C 15 20.776 15.224 21 15.5 21 L 18.5 21 C 18.776 21 19 20.776 19 20.5 L 19 17.5 C 19 17.224 18.776 17 18.5 17 L 15.5 17 z M 21.5 17 C 21.224 17 21 17.224 21 17.5 L 21 20.5 C 21 20.776 21.224 21 21.5 21 L 24.5 21 C 24.776 21 25 20.776 25 20.5 L 25 17.5 C 25 17.224 24.776 17 24.5 17 L 21.5 17 z M 27.5 17 C 27.224 17 27 17.224 27 17.5 L 27 20.5 C 27 20.776 27.224 21 27.5 21 L 30.5 21 C 30.776 21 31 20.776 31 20.5 L 31 17.5 C 31 17.224 30.776 17 30.5 17 L 27.5 17 z M 36.453125 17.460938 C 36.563223 17.524988 36.536475 17.506383 36.591797 17.539062 C 36.598397 17.542963 36.611941 17.552321 36.619141 17.556641 L 36.453125 17.460938 z M 37.09375 17.912109 C 37.258875 18.039597 37.41793 18.151208 37.607422 18.34375 C 38.175119 18.920585 38.75021 19.751213 38.927734 20.962891 A 1.50015 1.50015 0 0 0 40.660156 22.224609 C 41.201152 22.133579 41.750965 22.087007 42.300781 22.083984 L 42.302734 22.083984 C 43.334894 22.084281 44.021236 22.251217 44.451172 22.414062 C 44.269004 22.713306 44.121988 23.036758 43.865234 23.279297 A 1.50015 1.50015 0 0 0 43.841797 23.300781 C 43.040814 24.089509 41.947584 25.048553 39.628906 24.955078 A 1.50015 1.50015 0 0 0 38.796875 25.166016 C 38.796875 25.166016 38.234457 25.767418 38.234375 25.767578 C 38.234293 25.767738 38.214937 25.805973 38.210938 25.814453 C 38.202937 25.831413 38.199596 25.836607 38.197266 25.841797 C 38.192566 25.852197 38.192053 25.857271 38.189453 25.863281 C 38.184153 25.875321 38.177562 25.88885 38.169922 25.90625 C 38.154642 25.94104 38.132986 25.99077 38.103516 26.056641 C 38.044576 26.188389 37.95626 26.382374 37.841797 26.625 C 37.612871 27.110253 37.277664 27.792304 36.857422 28.566406 C 36.016937 30.11461 34.824157 32.034072 33.533203 33.447266 C 32.199476 34.907435 30.691285 36.166262 29.011719 37.134766 C 29.011719 37.134766 29.009766 37.136719 29.009766 37.136719 C 26.934852 38.30458 24.680396 39.120612 22.335938 39.548828 A 1.50015 1.50015 0 0 0 22.332031 39.548828 C 20.616665 39.86684 18.874386 40.025226 17.128906 40.019531 A 1.50015 1.50015 0 0 0 17.123047 40.019531 C 13.242236 40.019531 9.8454295 39.225278 8.0351562 38.121094 A 1.50015 1.50015 0 0 0 8.0332031 38.119141 C 6.3899221 37.119173 5.0795311 35.472952 4.1503906 33.048828 C 3.3449672 30.851778 3 28.216441 3 26.539062 L 3 25.998047 L 32.367188 25.998047 A 1.50015 1.50015 0 0 0 32.421875 25.998047 C 32.568141 25.992747 33.222613 25.977237 33.974609 25.875 C 34.726605 25.772766 35.610437 25.613958 36.470703 25.136719 A 1.50015 1.50015 0 0 0 37.009766 23.021484 C 36.270025 21.856514 36.094853 20.903612 36.449219 19.410156 C 36.577789 18.878148 36.847579 18.399286 37.09375 17.912109 z M 45.021484 22.708984 C 45.021314 22.708857 45.029597 22.713091 45.029297 22.712891 A 1.50015 1.50015 0 0 0 45.029297 22.714844 L 45.021484 22.708984 z"/></svg>