<svg width="96" height="96" viewBox="0 0 96 96" fill="currentColor" xmlns="http://www.w3.org/2000/svg">
<path d="M32.0703 4.0625C29.1041 3.83633 26.1602 4.34019 23.5781 5.83594C20.1354 7.83027 17.8906 11.2561 16.7344 15.1172C15.5781 18.9783 15.3745 23.3795 15.8672 28.1719C15.9238 28.7223 16.0183 29.2984 16.0938 29.8594C15.8121 29.9815 15.5104 30.0933 15.2344 30.2188C10.9043 32.187 7.25284 34.5674 4.53125 37.4922C1.80966 40.417 0 44.0496 0 48C0 51.9504 1.80966 55.583 4.53125 58.5078C7.25284 61.4326 10.9043 63.813 15.2344 65.7812C15.5104 65.9067 15.8121 66.0185 16.0938 66.1406C16.0183 66.7016 15.9238 67.2777 15.8672 67.8281C15.3742 72.6204 15.5783 77.0217 16.7344 80.8828C17.8904 84.744 20.1277 88.1695 23.5703 90.1641C27.013 92.1586 31.0988 92.3942 35.0234 91.4766C38.9481 90.559 42.869 88.5535 46.7812 85.7422C47.185 85.452 47.5886 85.1123 47.9922 84.8047C48.3985 85.1146 48.8044 85.45 49.2109 85.7422C53.123 88.5537 57.0441 90.5666 60.9688 91.4844C64.8934 92.4022 68.9791 92.1584 72.4219 90.1641C75.8646 88.1697 78.1094 84.7439 79.2656 80.8828C80.4219 77.0217 80.6255 72.6205 80.1328 67.8281C80.0761 67.2762 79.9742 66.7031 79.8984 66.1406C80.1823 66.0176 80.4875 65.9077 80.7656 65.7812C85.0957 63.813 88.7472 61.4326 91.4688 58.5078C94.1903 55.583 96 51.9504 96 48C96 44.0496 94.1903 40.417 91.4688 37.4922C88.7472 34.5674 85.0957 32.187 80.7656 30.2188C80.4896 30.0933 80.1879 29.9815 79.9062 29.8594C79.9817 29.2984 80.0762 28.7223 80.1328 28.1719C80.6258 23.3796 80.4217 18.9783 79.2656 15.1172C78.1096 11.256 75.8723 7.83045 72.4297 5.83594C68.987 3.84142 64.9012 3.60583 60.9766 4.52344C57.0519 5.44105 53.131 7.44648 49.2188 10.2578C48.8134 10.5491 48.4052 10.8864 48 11.1953C47.5958 10.8872 47.1935 10.5485 46.7891 10.2578C42.877 7.44628 38.9559 5.44126 35.0312 4.52344C34.0501 4.29398 33.059 4.13789 32.0703 4.0625ZM29.9688 12.0234C30.8895 11.9371 31.949 12.0192 33.2031 12.3125C35.6425 12.883 38.6582 14.3228 41.8516 16.5781C39.3398 19.0619 36.8771 21.8392 34.5078 24.9141C30.7253 25.4403 27.1555 26.2043 23.8125 27.1484C23.4278 23.2043 23.6802 19.8386 24.4062 17.4141C25.1453 14.9463 26.223 13.5473 27.5859 12.7578C28.2674 12.3631 29.048 12.1098 29.9688 12.0234ZM64.5391 12.0234C66.1526 11.8817 67.3919 12.1656 68.4141 12.7578C69.7769 13.5474 70.8627 14.9463 71.6016 17.4141C72.3275 19.8387 72.5802 23.2044 72.1953 27.1484C68.8503 26.2033 65.2774 25.4407 61.4922 24.9141C59.1238 21.8401 56.667 19.0614 54.1562 16.5781C57.3476 14.3253 60.3589 12.8825 62.7969 12.3125C63.424 12.1659 64.0012 12.0707 64.5391 12.0234ZM48 21.8125C48.7144 22.5059 49.4263 23.2883 50.1406 24.0469C49.4258 24.0321 48.7228 24 48 24C47.2772 24 46.5742 24.0321 45.8594 24.0469C46.5738 23.2883 47.2856 22.5059 48 21.8125ZM48 32C51.152 32 54.1951 32.1925 57.1406 32.4922C58.8034 34.8217 60.416 37.3032 61.9375 39.9297C63.5015 42.6296 64.8685 45.3279 66.0859 48C64.8684 50.6721 63.5016 53.3783 61.9375 56.0781C60.4159 58.7045 58.8036 61.1784 57.1406 63.5078C54.1951 63.8075 51.152 64 48 64C44.848 64 41.8049 63.8075 38.8594 63.5078C37.1966 61.1783 35.584 58.7046 34.0625 56.0781C32.4985 53.3782 31.1315 50.6721 29.9141 48C31.1316 45.3279 32.4984 42.6217 34.0625 39.9219C35.5841 37.2955 37.1965 34.8216 38.8594 32.4922C41.8049 32.1925 44.848 32 48 32ZM28.0703 34.3828C27.7615 34.8958 27.4435 35.3913 27.1406 35.9141C26.7798 36.5368 26.4539 37.1581 26.1094 37.7812C25.8357 36.8721 25.5389 35.9524 25.3125 35.0703C26.1836 34.8152 27.15 34.61 28.0703 34.3828ZM67.9297 34.3906C68.8494 34.6176 69.8169 34.8154 70.6875 35.0703C70.461 35.9524 70.1643 36.8721 69.8906 37.7812C69.5466 37.159 69.2196 36.5359 68.8594 35.9141C68.557 35.3921 68.238 34.9028 67.9297 34.3906ZM48 36C41.42 36 36 41.42 36 48C36 54.58 41.42 60 48 60C54.58 60 60 54.58 60 48C60 41.42 54.58 36 48 36ZM17.7344 37.8984C18.6139 41.1797 19.7468 44.5537 21.1641 47.9922C19.7447 51.4336 18.6074 54.8096 17.7266 58.0938C14.506 56.5354 11.977 54.7757 10.3828 53.0625C8.65136 51.2018 8 49.5725 8 48C8 46.4275 8.65136 44.7982 10.3828 42.9375C11.9786 41.2226 14.5092 39.4579 17.7344 37.8984ZM78.2734 37.9062C81.494 39.4646 84.023 41.2243 85.6172 42.9375C87.3486 44.7982 88 46.4275 88 48C88 49.5725 87.3486 51.2018 85.6172 53.0625C84.0219 54.7769 81.4893 56.5347 78.2656 58.0938C77.3856 54.8132 76.2532 51.4374 74.8359 48C76.2541 44.5609 77.3931 41.1883 78.2734 37.9062ZM48 44C50.2565 44 52 45.7435 52 48C52 50.2565 50.2565 52 48 52C45.7435 52 44 50.2565 44 48C44 45.7435 45.7435 44 48 44ZM26.1094 58.2188C26.4538 58.8419 26.7799 59.4632 27.1406 60.0859C27.4423 60.6067 27.7627 61.0983 28.0703 61.6094C27.1506 61.3824 26.1831 61.1846 25.3125 60.9297C25.539 60.0476 25.8357 59.1279 26.1094 58.2188ZM69.8906 58.2188C70.164 59.127 70.4612 60.0484 70.6875 60.9297C69.8164 61.1848 68.85 61.39 67.9297 61.6172C68.2385 61.1042 68.5565 60.6087 68.8594 60.0859C69.2202 59.4632 69.5461 58.8419 69.8906 58.2188ZM23.8047 68.8516C27.1497 69.7967 30.7226 70.5593 34.5078 71.0859C36.8757 74.1593 39.3335 76.9389 41.8438 79.4219C38.6524 81.6747 35.6411 83.1175 33.2031 83.6875C30.6948 84.274 28.9488 84.0318 27.5859 83.2422C26.2231 82.4526 25.1373 81.0537 24.3984 78.5859C23.6725 76.1613 23.4198 72.7956 23.8047 68.8516ZM72.1953 68.8516C72.58 72.7957 72.3276 76.1692 71.6016 78.5938C70.8626 81.0615 69.777 82.4527 68.4141 83.2422C67.0511 84.0317 65.3052 84.2741 62.7969 83.6875C60.3574 83.117 57.3419 81.6773 54.1484 79.4219C56.6602 76.9381 59.1229 74.1608 61.4922 71.0859C65.2774 70.5593 68.8503 69.7967 72.1953 68.8516ZM45.8594 71.9531C46.5742 71.9679 47.2772 72 48 72C48.7228 72 49.4258 71.9679 50.1406 71.9531C49.4262 72.7117 48.7144 73.4941 48 74.1875C47.2856 73.4941 46.5737 72.7117 45.8594 71.9531Z" fill="currentColor"/>
</svg>
