<svg width="96" height="96" viewBox="0 0 96 96" fill="currentColor" xmlns="http://www.w3.org/2000/svg">
<path d="M12 12V16V84H84V12H12ZM20 20H76V76H20V20ZM28 40V45.8047H36.2969V72H43.125V45.8047H51.5938V40H28ZM62.2188 40.0781C57.4818 40.4236 52.75 42.4068 52.75 48.9688C52.75 58.6208 65.75 58.6167 65.75 62.9688C65.75 63.3807 65.9318 66.3828 61.3438 66.3828C56.7557 66.3828 52.9219 63.5 52.9219 63.5V70.5078C52.9219 70.5078 72.9297 76.9748 72.9297 62.3828C72.9297 52.9068 59.8047 53.3799 59.8047 48.6719C59.8047 46.8479 61.1073 45.1406 64.6953 45.1406C68.2833 45.1406 71.4609 47.2578 71.4609 47.2578L71.6953 41.0234C71.6953 41.0234 66.9557 39.7326 62.2188 40.0781Z" fill="currentColor"/>
</svg>
