<svg width="96" height="96" viewBox="0 0 96 96" fill="currentColor" xmlns="http://www.w3.org/2000/svg">
<g opacity="0.96">
<path d="M45.001 0C20.1877 0 0.000976562 20.187 0.000976562 45.0003C0.000976562 69.8132 20.1877 90.0003 45.001 90.0003C69.8142 90.0003 90.001 69.8135 90.001 45.0003C90.001 20.187 69.8142 0 45.001 0ZM38.0592 4.57231C34.4064 7.69945 30.9095 11.5924 28.1001 15.7366C26.8349 17.603 25.6974 19.5303 24.6873 21.5069H11.397C17.5568 12.7225 27.068 6.4539 38.0592 4.57231ZM8.92792 25.4888H22.8543C20.5305 31.1413 19.2154 37.1248 18.9802 43.219H4.02405C4.29854 36.8241 6.04182 30.8034 8.92792 25.4888ZM4.04237 47.2009H18.9786C19.2077 53.3907 20.5098 59.3195 22.8657 64.9311H9.16206C6.2019 59.6293 4.38269 53.6084 4.04237 47.2009ZM11.6946 68.9128H24.7439C25.7391 70.8106 26.8591 72.6691 28.1075 74.4843C31.42 79.3006 34.9803 82.883 37.9875 85.4157C27.2023 83.5498 17.8474 77.4583 11.6946 68.9128ZM43.01 84.3072C38.5625 81.0502 33.3268 75.8554 29.3154 68.9128H43.01V84.3072ZM43.01 64.9309H27.249C24.8774 59.7907 23.2395 53.8611 22.9645 47.2007H43.0098L43.01 64.9309ZM43.01 43.219H22.9645C23.2124 37.0285 24.6207 31.0964 27.1678 25.4888H43.01V43.219ZM43.01 21.5069H29.1991C29.8776 20.3118 30.6087 19.1326 31.3961 17.971C35.4953 11.9237 39.9888 7.96385 43.01 5.7199V21.5069ZM85.9779 43.219H71.0215C70.7863 37.1248 69.4712 31.1413 67.1474 25.4888H81.0738C83.9599 30.8034 85.7034 36.8241 85.9779 43.219ZM78.605 21.5069H65.3149C64.3048 19.5303 63.1671 17.603 61.9021 15.7366C59.0927 11.5922 55.5948 7.70025 51.9417 4.57205C62.9332 6.45364 72.4447 12.7223 78.605 21.5069ZM46.9919 5.71964C50.0132 7.96358 54.5066 11.9235 58.6059 17.9707C59.3932 19.1324 60.1243 20.3115 60.8028 21.5066H46.9919V5.71964ZM46.9919 25.4888H62.8342C65.3813 31.0964 66.7895 37.0285 67.0375 43.219H46.9919V25.4888ZM46.9919 47.2009H67.0372C66.7625 53.8614 65.1243 59.791 62.7527 64.9311H46.9917L46.9919 47.2009ZM46.9919 68.9128H60.6866C56.6752 75.8551 51.4395 81.0502 46.9919 84.3072V68.9128ZM52.015 85.4157C55.0219 82.8832 58.582 79.3 61.8942 74.4846C63.1426 72.6693 64.2626 70.8108 65.2578 68.9131H78.3071C72.1545 77.458 62.7999 83.5496 52.015 85.4157ZM80.8399 64.9309H67.136C69.4919 59.3193 70.794 53.3907 71.0231 47.2007H85.9593C85.619 53.6084 83.8001 59.6293 80.8399 64.9309Z" fill="currentColor"/>
</g>
</svg>
